<svg width="44" height="44" viewBox="0 0 44 44" fill="none" xmlns="http://www.w3.org/2000/svg">
<rect width="44" height="44" rx="16" fill="#F0F0F0" fill-opacity="0.3"/>
<path fill-rule="evenodd" clip-rule="evenodd" d="M22.0227 12.25C17.2287 12.25 13.2887 15.913 12.9047 20.583H11.9437C11.6396 20.5829 11.3655 20.7664 11.2498 21.0476C11.134 21.3288 11.1996 21.6521 11.4157 21.866L13.0957 23.532C13.388 23.8218 13.8593 23.8218 14.1517 23.532L15.8317 21.866C16.0478 21.6521 16.1133 21.3288 15.9976 21.0476C15.8819 20.7664 15.6078 20.5829 15.3037 20.583H14.4107C14.7907 16.752 18.0487 13.75 22.0227 13.75C24.6869 13.7449 27.1625 15.1245 28.5597 17.393C28.6965 17.6287 28.9505 17.7716 29.2229 17.7662C29.4954 17.7609 29.7436 17.6081 29.8711 17.3673C29.9986 17.1264 29.9854 16.8354 29.8367 16.607C28.1668 13.8952 25.2073 12.2454 22.0227 12.25Z" fill="#6B6B6B"/>
<path fill-rule="evenodd" clip-rule="evenodd" d="M30.7847 20.467C30.4926 20.1785 30.0228 20.1785 29.7307 20.467L28.0437 22.133C27.827 22.3467 27.7609 22.6702 27.8765 22.9518C27.992 23.2333 28.2663 23.4171 28.5707 23.417H29.4697C29.0877 27.247 25.8187 30.25 21.8257 30.25C19.1533 30.2569 16.6684 28.8776 15.2607 26.606C15.1199 26.3779 14.8681 26.2422 14.6002 26.25C14.3323 26.2579 14.0889 26.4081 13.9617 26.644C13.8345 26.88 13.8429 27.1659 13.9837 27.394C15.6647 30.1084 18.6329 31.7571 21.8257 31.75C26.6337 31.75 30.5907 28.09 30.9757 23.417H31.9437C32.248 23.4171 32.5223 23.2333 32.6379 22.9518C32.7534 22.6702 32.6874 22.3467 32.4707 22.133L30.7847 20.467Z" fill="#6B6B6B"/>
</svg>
