<svg width="44" height="44" viewBox="0 0 44 44" fill="none" xmlns="http://www.w3.org/2000/svg">
<rect width="44" height="44" rx="16" fill="#F0F0F0" fill-opacity="0.3"/>
<path fill-rule="evenodd" clip-rule="evenodd" d="M22 12C17.582 12 14 16.003 14 20.5C14 24.962 16.553 29.812 20.537 31.674C21.464 32.1081 22.536 32.1081 23.463 31.674C27.447 29.812 30 24.962 30 20.5C30 16.003 26.418 12 22 12ZM22 22C23.1046 22 24 21.1046 24 20C24 18.8954 23.1046 18 22 18C20.8954 18 20 18.8954 20 20C20 21.1046 20.8954 22 22 22Z" fill="#6B6B6B"/>
</svg>
