<svg width="44" height="44" viewBox="0 0 44 44" fill="none" xmlns="http://www.w3.org/2000/svg">
<rect width="44" height="44" rx="16" fill="#F0F0F0" fill-opacity="0.3"/>
<path d="M27 18V16C27 14.114 27 13.172 26.414 12.586C25.828 12 24.886 12 23 12H21C19.114 12 18.172 12 17.586 12.586C17 13.172 17 14.114 17 16V18" stroke="#6B6B6B" stroke-width="1.5"/>
<path fill-rule="evenodd" clip-rule="evenodd" d="M20.564 15.417C21.4591 14.929 22.5409 14.929 23.436 15.417L28.23 18.031C29.1941 18.5566 29.794 19.5669 29.794 20.665V25.603C29.794 26.7011 29.1941 27.7114 28.23 28.237L23.436 30.851C22.5409 31.339 21.4591 31.339 20.564 30.851L15.769 28.237C14.8053 27.7111 14.2058 26.7008 14.206 25.603V20.664C14.2058 19.5661 14.8053 18.5559 15.769 18.03L20.564 15.417Z" stroke="#6B6B6B" stroke-width="1.5"/>
<path fill-rule="evenodd" clip-rule="evenodd" d="M21.141 21.5289C21.5232 20.843 21.7143 20.5 22 20.5C22.2856 20.5 22.4767 20.843 22.8589 21.5289L22.9575 21.7059C23.0661 21.9011 23.1204 21.9976 23.2049 22.063C23.2904 22.1264 23.396 22.1505 23.6072 22.1988L23.7983 22.242C24.5406 22.41 24.9117 22.4935 25.0003 22.7781C25.0888 23.0618 24.8353 23.3575 24.3294 23.9489L24.1986 24.1017C24.0548 24.2707 23.9824 24.3542 23.9502 24.4588C23.918 24.5634 23.9291 24.674 23.9502 24.8993L23.9703 25.1035C24.0468 25.8921 24.085 26.2873 23.8547 26.4623C23.6233 26.6384 23.2753 26.4784 22.5803 26.1586L22.4013 26.0751C22.2031 25.9846 22.1046 25.9393 22 25.9393C21.8954 25.9393 21.7968 25.9846 21.5987 26.0751L21.4196 26.1586C20.7246 26.4784 20.3766 26.6384 20.1453 26.4623C19.914 26.2873 19.9532 25.8921 20.0296 25.1035L20.0497 24.8993C20.0709 24.674 20.0819 24.5624 20.0497 24.4588C20.0176 24.3542 19.9451 24.2707 19.8013 24.1017L19.6706 23.9489C19.1646 23.3575 18.9112 23.0618 18.9997 22.7781C19.0882 22.4935 19.4593 22.41 20.2016 22.242L20.3927 22.1988C20.6039 22.1505 20.7095 22.1264 20.795 22.063C20.8795 21.9986 20.9338 21.9011 21.0425 21.7059L21.141 21.5289Z" stroke="#6B6B6B" stroke-width="1.50869"/>
</svg>
