<svg width="34" height="34" viewBox="0 0 34 34" fill="none" xmlns="http://www.w3.org/2000/svg">
<g filter="url(#filter0_dd_2_58)">
<rect x="3" y="2" width="28" height="28" rx="12" fill="#84CC16" shape-rendering="crispEdges"/>
<path fill-rule="evenodd" clip-rule="evenodd" d="M23.6667 16C23.6667 19.682 20.682 22.6667 17 22.6667C13.318 22.6667 10.3334 19.682 10.3334 16C10.3334 12.318 13.318 9.33334 17 9.33334C20.682 9.33334 23.6667 12.318 23.6667 16ZM19.6867 13.98C19.8817 14.1752 19.8817 14.4915 19.6867 14.6867L16.3534 18.02C16.1582 18.215 15.8419 18.215 15.6467 18.02L14.3134 16.6867C14.1796 16.562 14.1245 16.3743 14.1698 16.1971C14.215 16.02 14.3534 15.8817 14.5305 15.8364C14.7077 15.7912 14.8954 15.8462 15.02 15.98L16 16.96L17.49 15.47L18.98 13.98C19.1752 13.785 19.4915 13.785 19.6867 13.98Z" fill="white"/>
</g>
<defs>
<filter id="filter0_dd_2_58" x="0" y="0" width="34" height="34" filterUnits="userSpaceOnUse" color-interpolation-filters="sRGB">
<feFlood flood-opacity="0" result="BackgroundImageFix"/>
<feColorMatrix in="SourceAlpha" type="matrix" values="0 0 0 0 0 0 0 0 0 0 0 0 0 0 0 0 0 0 127 0" result="hardAlpha"/>
<feOffset dy="1"/>
<feGaussianBlur stdDeviation="1.5"/>
<feComposite in2="hardAlpha" operator="out"/>
<feColorMatrix type="matrix" values="0 0 0 0 0 0 0 0 0 0 0 0 0 0 0 0 0 0 0.1 0"/>
<feBlend mode="normal" in2="BackgroundImageFix" result="effect1_dropShadow_2_58"/>
<feColorMatrix in="SourceAlpha" type="matrix" values="0 0 0 0 0 0 0 0 0 0 0 0 0 0 0 0 0 0 127 0" result="hardAlpha"/>
<feMorphology radius="1" operator="erode" in="SourceAlpha" result="effect2_dropShadow_2_58"/>
<feOffset dy="1"/>
<feGaussianBlur stdDeviation="1"/>
<feComposite in2="hardAlpha" operator="out"/>
<feColorMatrix type="matrix" values="0 0 0 0 0 0 0 0 0 0 0 0 0 0 0 0 0 0 0.1 0"/>
<feBlend mode="normal" in2="effect1_dropShadow_2_58" result="effect2_dropShadow_2_58"/>
<feBlend mode="normal" in="SourceGraphic" in2="effect2_dropShadow_2_58" result="shape"/>
</filter>
</defs>
</svg>
