<svg width="44" height="44" viewBox="0 0 44 44" fill="none" xmlns="http://www.w3.org/2000/svg">
<rect width="44" height="44" rx="16" fill="#F0F0F0" fill-opacity="0.3"/>
<path fill-rule="evenodd" clip-rule="evenodd" d="M22 32C27.523 32 32 27.523 32 22C32 16.477 27.523 12 22 12C16.477 12 12 16.477 12 22C12 27.523 16.477 32 22 32ZM25 22C25.552 22 26 21.328 26 20.5C26 19.672 25.552 19 25 19C24.448 19 24 19.672 24 20.5C24 21.328 24.448 22 25 22ZM20 20.5C20 21.328 19.552 22 19 22C18.448 22 18 21.328 18 20.5C18 19.672 18.448 19 19 19C19.552 19 20 19.672 20 20.5ZM18.397 27.447C18.5156 27.6069 18.6929 27.7131 18.8899 27.7422C19.0868 27.7712 19.2873 27.7208 19.447 27.602C20.1839 27.0502 21.0794 26.7514 22 26.75C22.9206 26.7514 23.8161 27.0502 24.553 27.602C24.7677 27.769 25.0559 27.8068 25.3063 27.7006C25.5567 27.5945 25.7301 27.361 25.7593 27.0906C25.7885 26.8202 25.669 26.5552 25.447 26.398C24.4516 25.6541 23.2426 25.2515 22 25.25C20.7574 25.2515 19.5484 25.6541 18.553 26.398C18.2203 26.6446 18.1505 27.1142 18.397 27.447Z" fill="#6B6B6B"/>
</svg>
