<svg width="46" height="46" viewBox="0 0 46 46" fill="none" xmlns="http://www.w3.org/2000/svg">
<g filter="url(#filter0_dd_15_371)">
<rect x="3" y="2" width="40" height="40" rx="16" fill="white" shape-rendering="crispEdges"/>
<path fill-rule="evenodd" clip-rule="evenodd" d="M29.6777 26.9155C26.8587 27.5924 23.8882 26.8088 21.7701 24.8294C19.6519 22.8499 18.6691 19.9393 19.1537 17.081C19.118 17.1166 19.0796 17.1495 19.039 17.1795C18.7547 17.3957 18.3993 17.476 17.6886 17.6364L17.0438 17.7826C14.5461 18.3481 13.2972 18.6304 12.9998 19.5858C12.7033 20.5402 13.5541 21.5363 15.2569 23.5274L15.6975 24.0421C16.1808 24.6077 16.4235 24.891 16.5321 25.2402C16.6408 25.5905 16.6042 25.9682 16.5311 26.7226L16.4641 27.41C16.2072 30.0672 16.0783 31.3952 16.856 31.9851C17.6338 32.575 18.8034 32.0379 21.1407 30.9607L21.7469 30.6824C22.4109 30.3758 22.7429 30.2235 23.0953 30.2235C23.4476 30.2235 23.7796 30.3758 24.4446 30.6824L25.0488 30.9607C27.3871 32.0369 28.5568 32.575 29.3335 31.9861C30.1122 31.3952 29.9833 30.0672 29.7264 27.41L29.6777 26.9155Z" fill="#84CC16"/>
<path fill-rule="evenodd" clip-rule="evenodd" d="M20.1516 15.4237L19.8221 16.0144C19.4604 16.6634 19.2796 16.9879 18.9983 17.2019C19.0385 17.1717 19.0763 17.1392 19.1118 17.1044C18.6322 19.9327 19.6047 22.8129 21.7008 24.7714C23.7968 26.73 26.7363 27.5052 29.5256 26.8351L29.5055 26.6442C29.4342 25.8978 29.398 25.524 29.5055 25.1774C29.613 24.8319 29.8521 24.5516 30.3313 23.992L30.7673 23.4827C32.452 21.5136 33.2939 20.5281 32.9995 19.5828C32.7062 18.6374 31.4705 18.3572 28.9992 17.7986L28.3602 17.6539C27.658 17.4952 27.3064 17.4158 27.0241 17.2019C26.7428 16.9879 26.562 16.6634 26.2003 16.0144L25.8718 15.4237C24.599 13.1412 23.9631 12 23.0117 12C22.0603 12 21.4244 13.1412 20.1516 15.4237Z" fill="#84CC16"/>
</g>
<defs>
<filter id="filter0_dd_15_371" x="0" y="0" width="46" height="46" filterUnits="userSpaceOnUse" color-interpolation-filters="sRGB">
<feFlood flood-opacity="0" result="BackgroundImageFix"/>
<feColorMatrix in="SourceAlpha" type="matrix" values="0 0 0 0 0 0 0 0 0 0 0 0 0 0 0 0 0 0 127 0" result="hardAlpha"/>
<feOffset dy="1"/>
<feGaussianBlur stdDeviation="1.5"/>
<feComposite in2="hardAlpha" operator="out"/>
<feColorMatrix type="matrix" values="0 0 0 0 0 0 0 0 0 0 0 0 0 0 0 0 0 0 0.1 0"/>
<feBlend mode="normal" in2="BackgroundImageFix" result="effect1_dropShadow_15_371"/>
<feColorMatrix in="SourceAlpha" type="matrix" values="0 0 0 0 0 0 0 0 0 0 0 0 0 0 0 0 0 0 127 0" result="hardAlpha"/>
<feMorphology radius="1" operator="erode" in="SourceAlpha" result="effect2_dropShadow_15_371"/>
<feOffset dy="1"/>
<feGaussianBlur stdDeviation="1"/>
<feComposite in2="hardAlpha" operator="out"/>
<feColorMatrix type="matrix" values="0 0 0 0 0 0 0 0 0 0 0 0 0 0 0 0 0 0 0.1 0"/>
<feBlend mode="normal" in2="effect1_dropShadow_15_371" result="effect2_dropShadow_15_371"/>
<feBlend mode="normal" in="SourceGraphic" in2="effect2_dropShadow_15_371" result="shape"/>
</filter>
</defs>
</svg>
