<svg width="44" height="44" viewBox="0 0 44 44" fill="none" xmlns="http://www.w3.org/2000/svg">
<rect width="44" height="44" rx="16" fill="#84CC16" fill-opacity="0.1"/>
<path fill-rule="evenodd" clip-rule="evenodd" d="M17.843 13.802C19.872 12.601 20.886 12 22 12C23.114 12 24.128 12.6 26.157 13.802L26.843 14.208C28.872 15.41 29.886 16.011 30.443 17C31 17.99 31 19.19 31 21.594V22.406C31 24.809 31 26.011 30.443 27C29.886 27.989 28.872 28.59 26.843 29.791L26.157 30.198C24.128 31.399 23.114 32 22 32C20.886 32 19.872 31.4 17.843 30.198L17.157 29.791C15.128 28.591 14.114 27.989 13.557 27C13 26.01 13 24.81 13 22.406V21.594C13 19.19 13 17.989 13.557 17C14.114 16.011 15.128 15.41 17.157 14.208L17.843 13.802ZM23 26C23 26.5523 22.5523 27 22 27C21.4477 27 21 26.5523 21 26C21 25.4477 21.4477 25 22 25C22.5523 25 23 25.4477 23 26ZM22 16.25C22.4142 16.25 22.75 16.5858 22.75 17V23C22.75 23.4142 22.4142 23.75 22 23.75C21.5858 23.75 21.25 23.4142 21.25 23V17C21.25 16.5858 21.5858 16.25 22 16.25Z" fill="#84CC16"/>
</svg>
