<svg width="44" height="44" viewBox="0 0 44 44" fill="none" xmlns="http://www.w3.org/2000/svg">
<rect width="44" height="44" rx="16" fill="#F0F0F0" fill-opacity="0.3"/>
<path d="M12 32C12 30.585 12 29.878 12.44 29.44C12.879 29 13.585 29 15 29C16.415 29 17.122 29 17.56 29.44C18 29.879 18 30.586 18 32V23C18 21.585 18 20.878 18.44 20.44C18.879 20 19.586 20 21 20H23C24.415 20 25.122 20 25.56 20.44C26 20.879 26 21.586 26 23V32V29C26 27.585 26 26.878 26.44 26.44C26.879 26 27.585 26 29 26C30.415 26 31.122 26 31.56 26.44C32 26.879 32 27.586 32 29V32" stroke="#6B6B6B" stroke-width="1.5" stroke-linecap="round"/>
<path fill-rule="evenodd" clip-rule="evenodd" d="M21.141 13.0289C21.5232 12.342 21.7143 12 22 12C22.2856 12 22.4767 12.342 22.8589 13.0289L22.9575 13.2059C23.0661 13.4011 23.1204 13.4976 23.2049 13.562C23.2904 13.6264 23.396 13.6505 23.6072 13.6978L23.7983 13.742C24.5406 13.91 24.9117 13.9935 25.0003 14.2771C25.0888 14.5608 24.8353 14.8575 24.3294 15.4489L24.1986 15.6017C24.0548 15.7697 23.9824 15.8532 23.9502 15.9578C23.918 16.0624 23.9291 16.174 23.9502 16.3983L23.9703 16.6025C24.0468 17.3921 24.085 17.7873 23.8547 17.9623C23.6233 18.1384 23.2753 17.9774 22.5803 17.6576L22.4013 17.5751C22.2031 17.4846 22.1046 17.4383 22 17.4383C21.8954 17.4383 21.7968 17.4846 21.5987 17.5751L21.4196 17.6576C20.7246 17.9774 20.3766 18.1384 20.1453 17.9623C19.914 17.7873 19.9532 17.3921 20.0296 16.6025L20.0497 16.3983C20.0709 16.174 20.0819 16.0624 20.0497 15.9578C20.0176 15.8532 19.9451 15.7697 19.8013 15.6017L19.6706 15.4489C19.1646 14.8575 18.9112 14.5618 18.9997 14.2771C19.0882 13.9935 19.4593 13.91 20.2016 13.742L20.3927 13.6978C20.6039 13.6505 20.7095 13.6274 20.795 13.562C20.8795 13.4976 20.9338 13.4011 21.0425 13.2059L21.141 13.0289Z" stroke="#6B6B6B" stroke-width="1.50869"/>
</svg>
