<svg width="46" height="46" viewBox="0 0 46 46" fill="none" xmlns="http://www.w3.org/2000/svg">
<g filter="url(#filter0_dd_15_365)">
<rect x="3" y="2" width="40" height="40" rx="16" fill="white" shape-rendering="crispEdges"/>
<path fill-rule="evenodd" clip-rule="evenodd" d="M14.0007 13.9274C12.8247 15.1035 12.8247 17.0102 14.0007 18.1863L15.6586 19.8452L15.6982 19.8034L19.8767 15.6249L19.9185 15.5852L18.2597 13.9274C17.0836 12.7514 15.1768 12.7514 14.0007 13.9274Z" fill="#84CC16"/>
<path fill-rule="evenodd" clip-rule="evenodd" d="M21.0237 16.6904L20.9841 16.7322L16.8056 20.9107L16.7638 20.9504L26.7796 30.9662C27.9616 32.1087 29.8412 32.0926 31.0036 30.9303C32.166 29.7679 32.182 27.8883 31.0396 26.7063L21.0237 16.6904Z" fill="#84CC16"/>
<path fill-rule="evenodd" clip-rule="evenodd" d="M26.8026 12.3207C26.8781 12.127 27.0648 11.9995 27.2727 11.9995C27.4806 11.9995 27.6672 12.127 27.7428 12.3207L28.192 13.4646C28.2424 13.5956 28.3455 13.6994 28.4761 13.7508L29.6158 14.2021C29.8089 14.279 29.9356 14.4659 29.9356 14.6738C29.9356 14.8816 29.8089 15.0685 29.6158 15.1454L28.4771 15.5967C28.3477 15.6497 28.245 15.7525 28.192 15.8819L27.7428 17.0247C27.6672 17.2184 27.4806 17.3459 27.2727 17.3459C27.0648 17.3459 26.8781 17.2184 26.8026 17.0247L26.3534 15.8808C26.3004 15.7514 26.1976 15.6487 26.0682 15.5956L24.9296 15.1444C24.7365 15.0674 24.6098 14.8806 24.6098 14.6727C24.6098 14.4648 24.7365 14.278 24.9296 14.2011L26.0682 13.7498C26.1978 13.6965 26.3006 13.5934 26.3534 13.4636L26.8026 12.3207Z" fill="#84CC16"/>
<path fill-rule="evenodd" clip-rule="evenodd" d="M30.8422 19.4482C30.9177 19.2545 31.1043 19.127 31.3123 19.127C31.5202 19.127 31.7068 19.2545 31.7823 19.4482L31.9453 19.865C31.9975 19.9956 32.0999 20.099 32.2305 20.1502L32.6462 20.3153C32.8387 20.3925 32.9648 20.579 32.9648 20.7864C32.9648 20.9937 32.8387 21.1802 32.6462 21.2575L32.2305 21.4226C32.1011 21.4756 31.9983 21.5783 31.9453 21.7077L31.7823 22.1256C31.7068 22.3193 31.5202 22.4468 31.3123 22.4468C31.1043 22.4468 30.9177 22.3193 30.8422 22.1256L30.6782 21.7077C30.6254 21.5785 30.523 21.4758 30.394 21.4226L29.9783 21.2575C29.7859 21.1802 29.6598 20.9937 29.6598 20.7864C29.6598 20.579 29.7859 20.3925 29.9783 20.3153L30.394 20.1502C30.523 20.0969 30.6254 19.9942 30.6782 19.865L30.8422 19.4482Z" fill="#84CC16"/>
<path fill-rule="evenodd" clip-rule="evenodd" d="M15.3462 25.9009C15.4217 25.7071 15.6084 25.5796 15.8163 25.5796C16.0242 25.5796 16.2108 25.7071 16.2864 25.9009L16.4504 26.3187C16.5011 26.4493 16.6041 26.5527 16.7345 26.6039L17.1503 26.7679C17.3434 26.8448 17.4701 27.0317 17.4701 27.2395C17.4701 27.4474 17.3434 27.6343 17.1503 27.7112L16.7345 27.8762C16.6041 27.9274 16.5011 28.0309 16.4504 28.1614L16.2864 28.5793C16.2108 28.773 16.0242 28.9005 15.8163 28.9005C15.6084 28.9005 15.4217 28.773 15.3462 28.5793L15.1822 28.1614C15.1315 28.0309 15.0285 27.9274 14.8981 27.8762L14.4823 27.7112C14.2892 27.6343 14.1625 27.4474 14.1625 27.2395C14.1625 27.0317 14.2892 26.8448 14.4823 26.7679L14.8981 26.6039C15.0287 26.5525 15.1317 26.4486 15.1822 26.3177L15.3462 25.9009Z" fill="#84CC16"/>
</g>
<defs>
<filter id="filter0_dd_15_365" x="0" y="0" width="46" height="46" filterUnits="userSpaceOnUse" color-interpolation-filters="sRGB">
<feFlood flood-opacity="0" result="BackgroundImageFix"/>
<feColorMatrix in="SourceAlpha" type="matrix" values="0 0 0 0 0 0 0 0 0 0 0 0 0 0 0 0 0 0 127 0" result="hardAlpha"/>
<feOffset dy="1"/>
<feGaussianBlur stdDeviation="1.5"/>
<feComposite in2="hardAlpha" operator="out"/>
<feColorMatrix type="matrix" values="0 0 0 0 0 0 0 0 0 0 0 0 0 0 0 0 0 0 0.1 0"/>
<feBlend mode="normal" in2="BackgroundImageFix" result="effect1_dropShadow_15_365"/>
<feColorMatrix in="SourceAlpha" type="matrix" values="0 0 0 0 0 0 0 0 0 0 0 0 0 0 0 0 0 0 127 0" result="hardAlpha"/>
<feMorphology radius="1" operator="erode" in="SourceAlpha" result="effect2_dropShadow_15_365"/>
<feOffset dy="1"/>
<feGaussianBlur stdDeviation="1"/>
<feComposite in2="hardAlpha" operator="out"/>
<feColorMatrix type="matrix" values="0 0 0 0 0 0 0 0 0 0 0 0 0 0 0 0 0 0 0.1 0"/>
<feBlend mode="normal" in2="effect1_dropShadow_15_365" result="effect2_dropShadow_15_365"/>
<feBlend mode="normal" in="SourceGraphic" in2="effect2_dropShadow_15_365" result="shape"/>
</filter>
</defs>
</svg>
