<svg width="44" height="44" viewBox="0 0 44 44" fill="none" xmlns="http://www.w3.org/2000/svg">
<rect width="44" height="44" rx="16" fill="#84CC16" fill-opacity="0.1"/>
<path fill-rule="evenodd" clip-rule="evenodd" d="M18.387 15.08C18.2316 14.8243 18.0648 14.5757 17.887 14.335C19.0818 13.4652 20.5222 12.9977 22 13C23.32 13 24.555 13.365 25.608 14C25.5934 14.0893 25.5714 14.1903 25.542 14.303C25.4505 14.6542 25.3115 14.9913 25.129 15.305C25.08 15.382 24.879 15.578 24.516 15.849C24.354 15.969 24.175 16.08 23.96 16.209L23.886 16.252C23.699 16.364 23.484 16.492 23.277 16.634C22.789 16.968 22.281 17.42 21.939 18.151C21.7261 18.6063 21.6835 19.1229 21.819 19.607C21.854 19.742 21.873 19.877 21.874 19.997C21.874 20.034 21.859 20.093 21.777 20.162C21.6848 20.2377 21.5693 20.2793 21.45 20.28C20.373 20.268 19.523 19.376 19.4 17.953C19.306 16.871 18.864 15.869 18.387 15.079" fill="#84CC16"/>
<path fill-rule="evenodd" clip-rule="evenodd" d="M26.652 24.509C26.916 24.5057 27.1644 24.489 27.397 24.459C26.5082 25.5353 25.3179 26.3213 23.979 26.716C23.933 26.335 23.963 25.876 24.188 25.453C24.38 25.091 24.866 24.82 25.522 24.659C25.8856 24.5714 26.2572 24.5212 26.631 24.509H26.652Z" fill="#84CC16"/>
<path fill-rule="evenodd" clip-rule="evenodd" d="M15 20C15 18.28 15.62 16.706 16.648 15.488C16.7507 15.6313 16.851 15.7847 16.949 15.948C17.351 16.612 17.662 17.364 17.726 18.098C17.896 20.068 19.207 21.935 21.431 21.96C22.392 21.97 23.557 21.248 23.554 19.992C23.554 19.705 23.508 19.425 23.442 19.177C23.4092 19.0733 23.4159 18.961 23.461 18.862C23.631 18.498 23.883 18.255 24.227 18.02C24.387 17.91 24.553 17.81 24.745 17.696L24.822 17.65C25.038 17.521 25.283 17.372 25.52 17.196C25.865 16.939 26.31 16.578 26.547 16.206C26.734 15.912 26.907 15.535 27.041 15.143C28.2997 16.4464 29.0022 18.1881 29 20C28.9987 20.5327 28.9413 21.0493 28.828 21.55C28.7615 21.7601 28.659 21.957 28.525 22.132C28.288 22.439 27.813 22.817 26.635 22.829H26.599L26.503 22.832C26.037 22.8508 25.574 22.9161 25.121 23.027C24.362 23.213 23.25 23.637 22.704 24.666C22.274 25.477 22.224 26.311 22.322 26.993C20.4118 27.0801 18.5491 26.3823 17.1662 25.0616C15.7834 23.7409 15.0007 21.9122 15 20Z" fill="#84CC16"/>
<path fill-rule="evenodd" clip-rule="evenodd" d="M27.9949 11.3096C28.2715 11.001 28.7458 10.9745 29.055 11.2505C31.4085 13.3514 32.7529 16.3574 32.75 19.5122C32.75 25.2741 28.3526 30.0101 22.731 30.5461V31.0972H23.9833C24.3983 31.0972 24.7348 31.4336 24.7348 31.8486C24.7348 32.2636 24.3983 32.6 23.9833 32.6H19.9757C19.5607 32.6 19.2243 32.2636 19.2243 31.8486C19.2243 31.4336 19.5607 31.0972 19.9757 31.0972H21.2281V30.5872C18.2281 30.4716 15.404 29.1414 13.4043 26.9022C13.2234 26.7024 13.1634 26.421 13.2471 26.1648C13.3307 25.9086 13.5451 25.7169 13.809 25.6622C14.0729 25.6076 14.3459 25.6984 14.5244 25.9003C16.3404 27.9347 18.9389 29.0965 21.6659 29.0934C26.9575 29.0934 31.2471 24.8037 31.2471 19.5122C31.25 16.785 30.0878 14.1865 28.0531 12.3706C27.9042 12.2378 27.8143 12.0511 27.8033 11.8519C27.7922 11.6527 27.8608 11.4572 27.9939 11.3086" fill="#84CC16"/>
</svg>
