<svg width="80" height="80" viewBox="0 0 80 80" fill="none" xmlns="http://www.w3.org/2000/svg">
<g filter="url(#filter0_dd_7_279)">
<mask id="path-1-inside-1_7_279" fill="white">
<path d="M12 18C12 9.16344 19.1634 2 28 2H52C60.8366 2 68 9.16344 68 18V42C68 50.8366 60.8366 58 52 58H28C19.1634 58 12 50.8366 12 42V18Z"/>
</mask>
<path d="M12 18C12 9.16344 19.1634 2 28 2H52C60.8366 2 68 9.16344 68 18V42C68 50.8366 60.8366 58 52 58H28C19.1634 58 12 50.8366 12 42V18Z" fill="#58CC02" shape-rendering="crispEdges"/>
<path d="M12 2H68H12M68 62H12V54H68V62ZM68 54M12 58V2V58M12 58M68 2V58V2" fill="#46A302" mask="url(#path-1-inside-1_7_279)"/>
<path fill-rule="evenodd" clip-rule="evenodd" d="M29.5627 16.2293C28 17.7907 28 20.3053 28 25.3333V30.6667C28 35.6947 28 38.2093 29.5627 39.7707C31.1253 41.332 33.6387 41.3333 38.6667 41.3333H41.3333C46.3613 41.3333 48.876 41.3333 50.4373 39.7707C51.9987 38.208 52 35.6947 52 30.6667V25.3333C52 20.3053 52 17.7907 50.4373 16.2293C48.8747 14.668 46.3613 14.6667 41.3333 14.6667H38.6667C33.6387 14.6667 31.124 14.6667 29.5627 16.2293ZM33.6667 22.6667C33.6667 22.1144 34.1144 21.6667 34.6667 21.6667H45.3333C45.8856 21.6667 46.3333 22.1144 46.3333 22.6667C46.3333 23.219 45.8856 23.6667 45.3333 23.6667H34.6667C34.1144 23.6667 33.6667 23.219 33.6667 22.6667ZM33.6667 28C33.6667 27.4477 34.1144 27 34.6667 27H45.3333C45.8856 27 46.3333 27.4477 46.3333 28C46.3333 28.5523 45.8856 29 45.3333 29H34.6667C34.1144 29 33.6667 28.5523 33.6667 28ZM34.6667 32.3333C34.1144 32.3333 33.6667 32.781 33.6667 33.3333C33.6667 33.8856 34.1144 34.3333 34.6667 34.3333H41.3333C41.8856 34.3333 42.3333 33.8856 42.3333 33.3333C42.3333 32.781 41.8856 32.3333 41.3333 32.3333H34.6667Z" fill="white"/>
</g>
<defs>
<filter id="filter0_dd_7_279" x="0" y="0" width="80" height="80" filterUnits="userSpaceOnUse" color-interpolation-filters="sRGB">
<feFlood flood-opacity="0" result="BackgroundImageFix"/>
<feColorMatrix in="SourceAlpha" type="matrix" values="0 0 0 0 0 0 0 0 0 0 0 0 0 0 0 0 0 0 127 0" result="hardAlpha"/>
<feMorphology radius="3" operator="erode" in="SourceAlpha" result="effect1_dropShadow_7_279"/>
<feOffset dy="10"/>
<feGaussianBlur stdDeviation="7.5"/>
<feComposite in2="hardAlpha" operator="out"/>
<feColorMatrix type="matrix" values="0 0 0 0 0.345318 0 0 0 0 0.803887 0 0 0 0 0.0155635 0 0 0 0.1 0"/>
<feBlend mode="normal" in2="BackgroundImageFix" result="effect1_dropShadow_7_279"/>
<feColorMatrix in="SourceAlpha" type="matrix" values="0 0 0 0 0 0 0 0 0 0 0 0 0 0 0 0 0 0 127 0" result="hardAlpha"/>
<feMorphology radius="4" operator="erode" in="SourceAlpha" result="effect2_dropShadow_7_279"/>
<feOffset dy="4"/>
<feGaussianBlur stdDeviation="3"/>
<feComposite in2="hardAlpha" operator="out"/>
<feColorMatrix type="matrix" values="0 0 0 0 0.345318 0 0 0 0 0.803887 0 0 0 0 0.0155635 0 0 0 0.1 0"/>
<feBlend mode="normal" in2="effect1_dropShadow_7_279" result="effect2_dropShadow_7_279"/>
<feBlend mode="normal" in="SourceGraphic" in2="effect2_dropShadow_7_279" result="shape"/>
</filter>
</defs>
</svg>
