<svg width="70" height="70" viewBox="0 0 70 70" fill="none" xmlns="http://www.w3.org/2000/svg">
<g filter="url(#filter0_dd_7_229)">
<mask id="path-1-inside-1_7_229" fill="white">
<path d="M3 34C3 16.3269 17.3269 2 35 2C52.6731 2 67 16.3269 67 34C67 51.6731 52.6731 66 35 66C17.3269 66 3 51.6731 3 34Z"/>
</mask>
<path d="M3 34C3 16.3269 17.3269 2 35 2C52.6731 2 67 16.3269 67 34C67 51.6731 52.6731 66 35 66C17.3269 66 3 51.6731 3 34Z" fill="white" shape-rendering="crispEdges"/>
<path d="M1 0H69L65 4H5L1 0ZM69 72H1L5 60H65L69 72ZM1 72V0L5 4V60L1 72ZM69 0V72L65 60V4L69 0Z" fill="#EFECEC" fill-opacity="0.4" mask="url(#path-1-inside-1_7_229)"/>
<path fill-rule="evenodd" clip-rule="evenodd" d="M27.125 29.7308V27.3333C27.125 22.9841 30.6507 19.4583 35 19.4583C39.3492 19.4583 42.875 22.9841 42.875 27.3333V29.7308C44.1758 29.8277 45.0217 30.0727 45.6412 30.6922C46.6667 31.7165 46.6667 33.3673 46.6667 36.6667C46.6667 39.966 46.6667 41.6168 45.6412 42.6412C44.6168 43.6667 42.966 43.6667 39.6667 43.6667H30.3333C27.034 43.6667 25.3831 43.6667 24.3588 42.6412C23.3333 41.6168 23.3333 39.966 23.3333 36.6667C23.3333 33.3673 23.3333 31.7165 24.3588 30.6922C24.9771 30.0727 25.8241 29.8277 27.125 29.7308ZM28.875 27.3333C28.875 23.9506 31.6172 21.2083 35 21.2083C38.3827 21.2083 41.125 23.9506 41.125 27.3333V29.6713C40.6785 29.6674 40.1924 29.6659 39.6667 29.6667H30.3333C29.8068 29.6659 29.3206 29.6674 28.875 29.6713V27.3333Z" fill="#6B6B6B"/>
</g>
<defs>
<filter id="filter0_dd_7_229" x="0" y="0" width="70" height="70" filterUnits="userSpaceOnUse" color-interpolation-filters="sRGB">
<feFlood flood-opacity="0" result="BackgroundImageFix"/>
<feColorMatrix in="SourceAlpha" type="matrix" values="0 0 0 0 0 0 0 0 0 0 0 0 0 0 0 0 0 0 127 0" result="hardAlpha"/>
<feOffset dy="1"/>
<feGaussianBlur stdDeviation="1.5"/>
<feComposite in2="hardAlpha" operator="out"/>
<feColorMatrix type="matrix" values="0 0 0 0 0 0 0 0 0 0 0 0 0 0 0 0 0 0 0.1 0"/>
<feBlend mode="normal" in2="BackgroundImageFix" result="effect1_dropShadow_7_229"/>
<feColorMatrix in="SourceAlpha" type="matrix" values="0 0 0 0 0 0 0 0 0 0 0 0 0 0 0 0 0 0 127 0" result="hardAlpha"/>
<feMorphology radius="1" operator="erode" in="SourceAlpha" result="effect2_dropShadow_7_229"/>
<feOffset dy="1"/>
<feGaussianBlur stdDeviation="1"/>
<feComposite in2="hardAlpha" operator="out"/>
<feColorMatrix type="matrix" values="0 0 0 0 0 0 0 0 0 0 0 0 0 0 0 0 0 0 0.1 0"/>
<feBlend mode="normal" in2="effect1_dropShadow_7_229" result="effect2_dropShadow_7_229"/>
<feBlend mode="normal" in="SourceGraphic" in2="effect2_dropShadow_7_229" result="shape"/>
</filter>
</defs>
</svg>
