<svg width="320" height="80" viewBox="0 0 320 80" fill="none" xmlns="http://www.w3.org/2000/svg">
<rect x="120" width="80" height="80" rx="40" fill="#F0F0F0" fill-opacity="0.3"/>
<rect x="121" y="1" width="78" height="78" rx="39" stroke="#6B6B6B" stroke-opacity="0.3" stroke-width="2"/>
<path fill-rule="evenodd" clip-rule="evenodd" d="M176.667 33.6033V33.725C176.667 35.1583 176.667 35.8766 176.322 36.4633C175.977 37.05 175.348 37.3983 174.095 38.0966L172.773 38.83C173.683 35.75 173.988 32.44 174.1 29.61L174.117 29.2416L174.12 29.155C175.205 29.5316 175.815 29.8133 176.195 30.34C176.667 30.995 176.667 31.865 176.667 33.6033Z" fill="#6B6B6B"/>
<path fill-rule="evenodd" clip-rule="evenodd" d="M143.333 33.6033V33.725C143.333 35.1583 143.333 35.8766 143.678 36.4633C144.023 37.05 144.652 37.3983 145.905 38.0966L147.228 38.83C146.317 35.75 146.012 32.44 145.9 29.61L145.883 29.2416L145.882 29.155C144.795 29.5316 144.185 29.8133 143.805 30.34C143.333 30.995 143.333 31.8666 143.333 33.6033Z" fill="#6B6B6B"/>
<path fill-rule="evenodd" clip-rule="evenodd" d="M159.956 23.3329C162.93 23.3329 165.378 23.5946 167.251 23.9113C169.15 24.2313 170.098 24.3913 170.891 25.368C171.685 26.3446 171.641 27.3997 171.558 29.5097C171.271 36.7581 169.708 45.8099 161.206 46.6099V52.5H163.59C164.384 52.5004 165.067 53.0612 165.223 53.84L165.54 55.4167H169.956C170.647 55.4167 171.206 55.9763 171.206 56.6667C171.206 57.357 170.647 57.9167 169.956 57.9167H149.956C149.266 57.9167 148.706 57.357 148.706 56.6667C148.706 55.9763 149.266 55.4167 149.956 55.4167H154.373L154.69 53.84C154.845 53.0612 155.529 52.5004 156.323 52.5H158.706V46.6099C150.206 45.8099 148.643 36.7564 148.356 29.5097C148.271 27.3997 148.23 26.343 149.023 25.368C149.815 24.3913 150.763 24.2313 152.661 23.9113C155.073 23.5163 157.513 23.3228 159.956 23.3329ZM161.543 30.3314L161.38 30.038C160.746 28.8997 160.43 28.333 159.956 28.333C159.483 28.333 159.166 28.8997 158.533 30.038L158.37 30.3314C158.19 30.6547 158.1 30.8147 157.96 30.9214C157.818 31.028 157.643 31.068 157.293 31.1464L156.976 31.2197C155.746 31.498 155.131 31.6364 154.985 32.1064C154.838 32.5764 155.258 33.0681 156.096 34.0481L156.313 34.3014C156.551 34.5797 156.671 34.7181 156.725 34.8914C156.778 35.0648 156.76 35.2498 156.725 35.6214L156.691 35.9598C156.565 37.2681 156.501 37.9231 156.883 38.2131C157.266 38.5031 157.843 38.2381 158.995 37.7081L159.291 37.5714C159.62 37.4214 159.783 37.3464 159.956 37.3464C160.13 37.3464 160.293 37.4214 160.621 37.5714L160.918 37.7081C162.07 38.2398 162.646 38.5031 163.03 38.2131C163.413 37.9231 163.348 37.2681 163.221 35.9598L163.188 35.6214C163.153 35.2498 163.135 35.0648 163.188 34.8914C163.241 34.7181 163.361 34.5797 163.6 34.3014L163.816 34.0481C164.655 33.0681 165.075 32.5781 164.928 32.1064C164.781 31.6364 164.166 31.498 162.936 31.2197L162.62 31.1464C162.27 31.068 162.095 31.0297 161.953 30.9214C161.813 30.8147 161.723 30.6547 161.543 30.3314Z" fill="#6B6B6B"/>
</svg>
