<svg width="320" height="64" viewBox="0 0 320 64" fill="none" xmlns="http://www.w3.org/2000/svg">
<mask id="path-1-inside-1_7_239" fill="white">
<path d="M128 32C128 14.3269 142.327 0 160 0C177.673 0 192 14.3269 192 32C192 49.6731 177.673 64 160 64C142.327 64 128 49.6731 128 32Z"/>
</mask>
<path d="M128 32C128 14.3269 142.327 0 160 0C177.673 0 192 14.3269 192 32C192 49.6731 177.673 64 160 64C142.327 64 128 49.6731 128 32Z" fill="#F0F0F0"/>
<path d="M128 0H192H128M192 70H128V58H192V70ZM192 58M128 64V0V64M128 64M192 0V64V0" fill="#6B6B6B" fill-opacity="0.1" mask="url(#path-1-inside-1_7_239)"/>
<path fill-rule="evenodd" clip-rule="evenodd" d="M152.125 26.7308V24.3333C152.125 19.9841 155.651 16.4583 160 16.4583C164.349 16.4583 167.875 19.9841 167.875 24.3333V26.7308C169.176 26.8277 170.022 27.0727 170.641 27.6922C171.667 28.7165 171.667 30.3673 171.667 33.6667C171.667 36.966 171.667 38.6168 170.641 39.6412C169.617 40.6667 167.966 40.6667 164.667 40.6667H155.333C152.034 40.6667 150.383 40.6667 149.359 39.6412C148.333 38.6168 148.333 36.966 148.333 33.6667C148.333 30.3673 148.333 28.7165 149.359 27.6922C149.977 27.0727 150.824 26.8277 152.125 26.7308ZM153.875 24.3333C153.875 20.9506 156.617 18.2083 160 18.2083C163.383 18.2083 166.125 20.9506 166.125 24.3333V26.6713C165.679 26.6674 165.192 26.6659 164.667 26.6667H155.333C154.807 26.6659 154.321 26.6674 153.875 26.6713V24.3333Z" fill="#6B6B6B"/>
</svg>
