<svg width="128" height="128" viewBox="0 0 128 128" fill="none" xmlns="http://www.w3.org/2000/svg">
<g filter="url(#filter0_d_7_213)">
<mask id="path-1-inside-1_7_213" fill="white">
<path d="M24 52C24 29.9086 41.9086 12 64 12C86.0914 12 104 29.9086 104 52C104 74.0914 86.0914 92 64 92C41.9086 92 24 74.0914 24 52Z"/>
</mask>
<path d="M24 52C24 29.9086 41.9086 12 64 12C86.0914 12 104 29.9086 104 52C104 74.0914 86.0914 92 64 92C41.9086 92 24 74.0914 24 52Z" fill="#58CD04" shape-rendering="crispEdges"/>
<path d="M24 12H104H24M104 100H24V84H104V100ZM104 84M24 92V12V92M24 92M104 12V92V12" fill="#58CD04" fill-opacity="0.7" mask="url(#path-1-inside-1_7_213)"/>
<path fill-rule="evenodd" clip-rule="evenodd" d="M76.5453 43.9569C77.8503 44.6509 78.6658 46.0083 78.6658 47.4863C78.6658 48.9643 77.8503 50.3216 76.5453 51.0156L59.4626 60.3049C56.712 61.8023 53.3333 59.8556 53.3333 56.7769V38.1969C53.3333 35.1169 56.712 33.1716 59.4626 34.6663L76.5453 43.9569Z" fill="white"/>
</g>
<defs>
<filter id="filter0_d_7_213" x="0" y="0" width="128" height="128" filterUnits="userSpaceOnUse" color-interpolation-filters="sRGB">
<feFlood flood-opacity="0" result="BackgroundImageFix"/>
<feColorMatrix in="SourceAlpha" type="matrix" values="0 0 0 0 0 0 0 0 0 0 0 0 0 0 0 0 0 0 127 0" result="hardAlpha"/>
<feOffset dy="12"/>
<feGaussianBlur stdDeviation="12"/>
<feComposite in2="hardAlpha" operator="out"/>
<feColorMatrix type="matrix" values="0 0 0 0 0.133333 0 0 0 0 0.772549 0 0 0 0 0.368627 0 0 0 0.3 0"/>
<feBlend mode="normal" in2="BackgroundImageFix" result="effect1_dropShadow_7_213"/>
<feBlend mode="normal" in="SourceGraphic" in2="effect1_dropShadow_7_213" result="shape"/>
</filter>
</defs>
</svg>
