<svg width="74" height="74" viewBox="0 0 74 74" fill="none" xmlns="http://www.w3.org/2000/svg">
<g filter="url(#filter0_dd_7_222)">
<mask id="path-1-inside-1_7_222" fill="white">
<path d="M5 33C5 15.3269 19.3269 1 37 1C54.6731 1 69 15.3269 69 33C69 50.6731 54.6731 65 37 65C19.3269 65 5 50.6731 5 33Z"/>
</mask>
<path d="M5 33C5 15.3269 19.3269 1 37 1C54.6731 1 69 15.3269 69 33C69 50.6731 54.6731 65 37 65C19.3269 65 5 50.6731 5 33Z" fill="#58CD04" shape-rendering="crispEdges"/>
<path d="M5 1H69H5M69 71H5V59H69V71ZM69 59M5 65V1V65M5 65M69 1V65V1" fill="#58CD04" fill-opacity="0.7" mask="url(#path-1-inside-1_7_222)"/>
<path fill-rule="evenodd" clip-rule="evenodd" d="M33.6594 22.3322C35.1461 19.6663 35.8888 18.3333 37 18.3333C38.1112 18.3333 38.854 19.6663 40.3406 22.3322L40.7255 23.0222C41.1479 23.7802 41.3591 24.1592 41.6877 24.4091C42.0162 24.659 42.4269 24.7517 43.2483 24.9371L43.9945 25.1061C46.8811 25.7597 48.3231 26.0859 48.6669 27.19C49.0096 28.293 48.0263 29.4441 46.0585 31.7451L45.5493 32.34C44.9907 32.9936 44.7103 33.321 44.5847 33.7246C44.4592 34.1294 44.5014 34.5659 44.5859 35.4377L44.6634 36.2321C44.9602 39.3029 45.1093 40.8376 44.2104 41.5194C43.3116 42.2011 41.9599 41.5792 39.2588 40.3354L38.5583 40.0139C37.7909 39.6596 37.4072 39.4836 37 39.4836C36.5928 39.4836 36.2091 39.6596 35.4418 40.0139L34.7424 40.3354C32.0401 41.5792 30.6884 42.2011 29.7907 41.5205C28.8908 40.8376 29.0398 39.3029 29.3366 36.2321L29.4141 35.4389C29.4986 34.5659 29.5408 34.1294 29.4141 33.7258C29.2897 33.321 29.0093 32.9936 28.4507 32.3412L27.9415 31.7451C25.9737 29.4453 24.9904 28.2942 25.3331 27.19C25.6757 26.0859 27.1201 25.7585 30.0066 25.1061L30.7529 24.9371C31.5731 24.7517 31.9826 24.659 32.3123 24.4091C32.6421 24.1592 32.8521 23.7802 33.2745 23.0222L33.6594 22.3322Z" fill="white"/>
</g>
<defs>
<filter id="filter0_dd_7_222" x="0" y="0" width="74" height="74" filterUnits="userSpaceOnUse" color-interpolation-filters="sRGB">
<feFlood flood-opacity="0" result="BackgroundImageFix"/>
<feColorMatrix in="SourceAlpha" type="matrix" values="0 0 0 0 0 0 0 0 0 0 0 0 0 0 0 0 0 0 127 0" result="hardAlpha"/>
<feMorphology radius="1" operator="erode" in="SourceAlpha" result="effect1_dropShadow_7_222"/>
<feOffset dy="4"/>
<feGaussianBlur stdDeviation="3"/>
<feComposite in2="hardAlpha" operator="out"/>
<feColorMatrix type="matrix" values="0 0 0 0 0 0 0 0 0 0 0 0 0 0 0 0 0 0 0.1 0"/>
<feBlend mode="normal" in2="BackgroundImageFix" result="effect1_dropShadow_7_222"/>
<feColorMatrix in="SourceAlpha" type="matrix" values="0 0 0 0 0 0 0 0 0 0 0 0 0 0 0 0 0 0 127 0" result="hardAlpha"/>
<feMorphology radius="2" operator="erode" in="SourceAlpha" result="effect2_dropShadow_7_222"/>
<feOffset dy="2"/>
<feGaussianBlur stdDeviation="2"/>
<feComposite in2="hardAlpha" operator="out"/>
<feColorMatrix type="matrix" values="0 0 0 0 0 0 0 0 0 0 0 0 0 0 0 0 0 0 0.1 0"/>
<feBlend mode="normal" in2="effect1_dropShadow_7_222" result="effect2_dropShadow_7_222"/>
<feBlend mode="normal" in="SourceGraphic" in2="effect2_dropShadow_7_222" result="shape"/>
</filter>
</defs>
</svg>
