<svg width="442" height="442" viewBox="0 0 442 442" fill="none" xmlns="http://www.w3.org/2000/svg">
<path fill-rule="evenodd" clip-rule="evenodd" d="M219.695 105.472C219.367 105.546 219.048 105.654 218.744 105.796C213.432 108.279 210.028 115.221 210.028 121.169C210.028 126.823 214.272 131.468 219.695 131.981V105.472Z" fill="white"/>
<path fill-rule="evenodd" clip-rule="evenodd" d="M221.695 131.981C227.117 131.468 231.361 126.824 231.361 121.171C231.361 120.629 231.333 120.08 231.277 119.525L221.695 129.109V131.981Z" fill="white"/>
<path fill-rule="evenodd" clip-rule="evenodd" d="M229.041 112.268C228.53 111.309 227.932 110.399 227.255 109.548L221.695 115.108V119.615L229.041 112.268Z" fill="white"/>
<path fill-rule="evenodd" clip-rule="evenodd" d="M225.905 108.068C224.949 107.139 223.848 106.371 222.645 105.796C222.341 105.654 222.022 105.546 221.695 105.472V112.28L225.905 108.068Z" fill="white"/>
<path fill-rule="evenodd" clip-rule="evenodd" d="M229.943 114.193L221.695 122.443V126.28L230.695 117.28L230.871 117.104C230.636 116.112 230.326 115.139 229.943 114.193Z" fill="white"/>
<path fill-rule="evenodd" clip-rule="evenodd" d="M290.002 137.218C287.967 135.174 285.747 133.323 283.372 131.688C285.951 130.377 288.395 129.587 290.513 129.342C293.186 129.033 295.162 129.602 296.389 130.829C297.618 132.057 298.187 134.032 297.876 136.704C297.633 138.825 296.842 141.267 295.529 143.848C293.895 141.472 292.045 139.253 290.002 137.218Z" fill="white"/>
<path fill-rule="evenodd" clip-rule="evenodd" d="M287.989 130.836C290.226 133.057 292.212 135.518 293.909 138.174C292.212 140.831 290.226 143.292 287.989 145.514C285.768 147.751 283.307 149.737 280.651 151.434C277.993 149.737 275.531 147.751 273.309 145.514C271.072 143.293 269.087 140.832 267.391 138.176C269.088 135.517 271.073 133.055 273.311 130.832C275.532 128.596 277.993 126.612 280.649 124.915C283.306 126.613 285.767 128.598 287.989 130.836ZM280.649 142.832C283.22 142.832 285.305 140.747 285.305 138.176C285.305 135.604 283.22 133.52 280.649 133.52C278.078 133.52 275.993 135.604 275.993 138.176C275.993 140.747 278.078 142.832 280.649 142.832Z" fill="white"/>
<path fill-rule="evenodd" clip-rule="evenodd" d="M283.385 153.059C285.759 151.425 287.977 149.575 290.01 147.533C292.051 145.499 293.899 143.282 295.532 140.908C296.844 143.487 297.634 145.927 297.877 148.044C298.186 150.714 297.619 152.688 296.391 153.914C295.165 155.142 293.191 155.71 290.521 155.4C288.404 155.157 285.962 154.371 283.385 153.059Z" fill="white"/>
<path fill-rule="evenodd" clip-rule="evenodd" d="M271.291 147.533C273.324 149.575 275.542 151.425 277.915 153.059C275.337 154.369 272.897 155.158 270.778 155.402C268.108 155.71 266.137 155.143 264.91 153.916C263.682 152.69 263.113 150.716 263.422 148.045C263.665 145.929 264.455 143.489 265.767 140.91C267.401 143.284 269.251 145.501 271.293 147.535" fill="white"/>
<path fill-rule="evenodd" clip-rule="evenodd" d="M265.767 135.44C267.401 133.067 269.251 130.849 271.293 128.816C273.326 126.774 275.544 124.925 277.917 123.292C275.339 121.982 272.898 121.192 270.78 120.947C268.11 120.64 266.137 121.207 264.91 122.433C263.684 123.66 263.115 125.633 263.424 128.305C263.667 130.421 264.455 132.862 265.767 135.44Z" fill="white"/>
<path fill-rule="evenodd" clip-rule="evenodd" d="M311.246 172.515C311.603 171.91 312.383 171.71 312.987 172.067L314.398 172.901L330.078 181.9C330.472 182.127 330.716 182.546 330.717 183C330.718 183.455 330.476 183.875 330.083 184.104C329.69 184.332 329.206 184.333 328.812 184.107L327.382 183.286L324.83 187.691L324.827 187.688L320.489 185.193C320.095 184.959 319.605 184.955 319.206 185.183C318.808 185.411 318.564 185.836 318.567 186.294C318.57 186.753 318.82 187.175 319.221 187.398L323.555 189.891L321.925 192.705L321.922 192.704L314.795 188.604C314.401 188.369 313.911 188.365 313.512 188.593C313.114 188.821 312.87 189.246 312.873 189.704C312.876 190.163 313.126 190.585 313.527 190.808L320.648 194.906L319.148 197.499L319.144 197.496L314.714 194.947C314.106 194.609 313.34 194.822 312.993 195.424C312.647 196.027 312.848 196.796 313.445 197.151L317.873 199.698L315.973 202.974C313.693 206.9 308.668 208.242 304.734 205.976C302.847 204.893 301.468 203.103 300.903 201.001C300.338 198.9 300.633 196.659 301.723 194.776L313.121 175.101L313.111 175.096L311.694 174.258C311.403 174.086 311.192 173.806 311.108 173.479C311.024 173.152 311.074 172.805 311.246 172.515Z" fill="white"/>
<path fill-rule="evenodd" clip-rule="evenodd" d="M331.141 198.598C333.015 198.598 334.533 197.016 334.533 195.066C334.533 193.845 333.205 192.215 332.21 191.166C331.934 190.869 331.547 190.7 331.141 190.7C330.736 190.7 330.349 190.869 330.073 191.166C329.078 192.215 327.75 193.845 327.75 195.066C327.75 197.016 329.268 198.598 331.141 198.598Z" fill="white"/>
<path fill-rule="evenodd" clip-rule="evenodd" d="M315.293 267.747C308.702 267.747 305.408 267.747 303.361 265.472C301.313 263.199 301.313 259.537 301.313 252.214C301.313 244.892 301.313 241.231 303.361 238.956C305.408 236.68 308.704 236.682 315.293 236.682C321.882 236.682 325.178 236.682 327.225 238.956C329.273 241.233 329.273 244.892 329.273 252.214C329.273 259.537 329.273 263.198 327.225 265.472C325.178 267.746 321.882 267.747 315.293 267.747ZM319.953 242.895H310.633C309.911 242.895 309.551 242.895 309.254 242.974C308.451 243.19 307.823 243.817 307.607 244.62C307.527 244.92 307.527 245.281 307.527 246.001C307.527 246.722 307.527 247.084 307.606 247.381C307.821 248.184 308.449 248.812 309.252 249.027C309.552 249.108 309.912 249.108 310.633 249.108H319.953C320.675 249.108 321.036 249.108 321.332 249.029C322.136 248.813 322.763 248.186 322.979 247.382C323.06 247.082 323.06 246.722 323.06 246.001C323.06 245.281 323.06 244.919 322.98 244.622C322.765 243.819 322.137 243.191 321.334 242.976C321.036 242.895 320.674 242.895 319.953 242.895ZM310.633 253.768C310.633 254.626 309.938 255.321 309.08 255.321C308.222 255.321 307.527 254.626 307.527 253.768C307.527 252.91 308.222 252.214 309.08 252.214C309.938 252.214 310.633 252.91 310.633 253.768ZM315.293 255.321C316.151 255.321 316.846 254.626 316.846 253.768C316.846 252.91 316.151 252.214 315.293 252.214C314.435 252.214 313.74 252.91 313.74 253.768C313.74 254.626 314.435 255.321 315.293 255.321ZM323.06 253.768C323.06 254.626 322.364 255.321 321.506 255.321C320.648 255.321 319.953 254.626 319.953 253.768C319.953 252.91 320.648 252.214 321.506 252.214C322.364 252.214 323.06 252.91 323.06 253.768ZM321.506 261.534C322.364 261.534 323.06 260.839 323.06 259.981C323.06 259.123 322.364 258.428 321.506 258.428C320.648 258.428 319.953 259.123 319.953 259.981C319.953 260.839 320.648 261.534 321.506 261.534ZM316.846 259.981C316.846 260.839 316.151 261.534 315.293 261.534C314.435 261.534 313.74 260.839 313.74 259.981C313.74 259.123 314.435 258.428 315.293 258.428C316.151 258.428 316.846 259.123 316.846 259.981ZM309.08 261.534C309.938 261.534 310.633 260.839 310.633 259.981C310.633 259.123 309.938 258.428 309.08 258.428C308.222 258.428 307.527 259.123 307.527 259.981C307.527 260.839 308.222 261.534 309.08 261.534Z" fill="white"/>
<path fill-rule="evenodd" clip-rule="evenodd" d="M292.802 295.764C294.932 297.895 294.932 301.349 292.802 303.48L291.819 304.463C291.461 304.383 291.108 304.283 290.762 304.164C289.293 303.649 287.959 302.808 286.862 301.704C285.758 300.606 284.917 299.273 284.402 297.803C284.283 297.457 284.184 297.104 284.105 296.747L285.086 295.764C287.217 293.633 290.671 293.633 292.802 295.764Z" fill="white"/>
<path fill-rule="evenodd" clip-rule="evenodd" d="M279.693 316.589C278.892 317.389 278.492 317.79 278.05 318.135C277.529 318.541 276.965 318.889 276.369 319.173C275.864 319.413 275.326 319.591 274.252 319.95L268.588 321.839C268.059 322.016 267.475 321.879 267.08 321.484C266.686 321.089 266.549 320.505 266.727 319.976L268.616 314.313C268.972 313.239 269.151 312.702 269.392 312.197C269.679 311.598 270.025 311.038 270.431 310.516C270.776 310.074 271.176 309.673 271.977 308.871L281.72 299.129C282.391 300.886 283.426 302.48 284.759 303.807C286.085 305.139 287.68 306.175 289.436 306.845L279.693 316.589Z" fill="white"/>
<path fill-rule="evenodd" clip-rule="evenodd" d="M296.546 319.112C299.273 316.382 299.273 311.994 299.273 303.214C299.273 300.331 299.273 297.922 299.176 295.888L287.328 307.736C286.674 308.392 286.182 308.884 285.629 309.314C284.981 309.822 284.278 310.257 283.534 310.61C282.901 310.912 282.241 311.132 281.362 311.424L275.902 313.244C274.401 313.744 272.747 313.353 271.629 312.235C270.51 311.116 270.12 309.462 270.62 307.962L272.439 302.501C272.732 301.622 272.952 300.963 273.253 300.33C273.61 299.585 274.042 298.886 274.55 298.234C274.98 297.681 275.471 297.191 276.127 296.536L287.976 284.687C285.942 284.59 283.532 284.59 280.649 284.59C271.87 284.59 267.48 284.59 264.751 287.317C262.025 290.047 262.025 294.435 262.025 303.214C262.025 311.994 262.025 316.384 264.751 319.11C267.482 321.839 271.87 321.839 280.649 321.839C289.428 321.839 293.818 321.839 296.545 319.11" fill="white"/>
<g clip-path="url(#clip0_9_363)">
<path fill-rule="evenodd" clip-rule="evenodd" d="M211.988 311.881C217.937 305.94 227.61 306.003 233.595 311.989C239.583 317.978 239.646 327.655 233.695 333.604C227.745 339.553 218.069 339.492 212.081 333.503C208.666 330.103 207.042 325.298 207.695 320.524C207.782 319.88 208.376 319.429 209.019 319.517C209.663 319.605 210.114 320.198 210.026 320.842C209.472 324.888 210.848 328.961 213.742 331.842C218.829 336.927 227.017 336.957 232.034 331.942C237.048 326.926 237.019 318.738 231.933 313.651C226.849 308.569 218.666 308.536 213.65 313.544L214.823 313.549C215.472 313.552 215.996 314.081 215.993 314.73C215.99 315.38 215.461 315.904 214.812 315.901L210.82 315.882C210.175 315.878 209.654 315.356 209.651 314.711L209.631 310.723C209.628 310.303 209.85 309.913 210.213 309.701C210.576 309.489 211.024 309.487 211.389 309.695C211.754 309.903 211.98 310.29 211.982 310.71L211.988 311.881ZM222.836 315.299C223.486 315.299 224.012 315.825 224.012 316.474V322.259L227.588 325.833C227.894 326.128 228.016 326.565 227.909 326.976C227.801 327.387 227.481 327.709 227.07 327.816C226.659 327.924 226.221 327.802 225.926 327.496L221.662 323.232V316.476C221.662 315.827 222.187 315.299 222.836 315.299Z" fill="white"/>
</g>
<path fill-rule="evenodd" clip-rule="evenodd" d="M152.904 306.02C153.48 298.354 159.869 292.427 167.557 292.428C166.337 292.428 165.25 292.962 164.354 293.781C163.464 294.595 162.714 295.732 162.105 297.075C161.494 298.427 161.018 300.008 160.696 301.723C160.435 303.142 160.279 304.578 160.229 306.02H152.904ZM152.904 308.224H160.229C160.282 309.697 160.439 311.145 160.696 312.521C161.019 314.236 161.494 315.817 162.105 317.169C162.714 318.512 163.464 319.649 164.354 320.463C165.25 321.282 166.337 321.817 167.557 321.817C159.813 321.817 153.466 315.826 152.904 308.224Z" fill="white"/>
<path fill-rule="evenodd" clip-rule="evenodd" d="M155.054 291.262C154.672 291.262 154.179 291.425 153.605 291.95C153.027 292.479 152.448 293.308 151.937 294.437C151.429 295.56 151.016 296.914 150.733 298.428C150.511 299.62 150.372 300.884 150.322 302.173H159.786C159.741 300.916 159.604 299.665 159.375 298.428C159.092 296.914 158.681 295.56 158.171 294.437C157.66 293.308 157.082 292.479 156.504 291.951C155.929 291.425 155.436 291.262 155.054 291.262Z" fill="white"/>
<path fill-rule="evenodd" clip-rule="evenodd" d="M150.733 308.001C151.016 309.515 151.429 310.869 151.937 311.991C152.448 313.121 153.027 313.95 153.604 314.478C154.179 315.004 154.673 315.167 155.054 315.167C155.436 315.167 155.929 315.004 156.503 314.479C157.082 313.95 157.66 313.121 158.171 311.991C158.679 310.869 159.092 309.515 159.375 308.001C159.599 306.809 159.738 305.545 159.786 304.256H150.322C150.37 305.545 150.509 306.809 150.733 308.001Z" fill="white"/>
<path fill-rule="evenodd" clip-rule="evenodd" d="M142.147 284.612C143.368 284.612 144.454 285.147 145.35 285.966C146.239 286.78 146.992 287.917 147.599 289.26C148.211 290.612 148.686 292.193 149.008 293.908C149.265 295.284 149.422 296.732 149.475 298.205H156.8C156.224 290.538 149.835 284.612 142.147 284.612Z" fill="white"/>
<path fill-rule="evenodd" clip-rule="evenodd" d="M149.008 304.706C148.686 306.42 148.211 308.002 147.599 309.354C146.992 310.697 146.239 311.834 145.35 312.648C144.454 313.466 143.368 314.001 142.147 314.001C149.891 314.001 156.237 308.01 156.8 300.409H149.475C149.425 301.851 149.269 303.287 149.008 304.706Z" fill="white"/>
<path fill-rule="evenodd" clip-rule="evenodd" d="M111.094 237.909C109.422 239.58 109.422 242.27 109.422 247.649C109.422 253.029 109.422 255.719 111.094 257.389C112.766 259.06 115.455 259.061 120.834 259.061H126.54C131.919 259.061 134.61 259.061 136.28 257.389C137.95 255.718 137.952 253.029 137.952 247.649C137.952 242.27 137.952 239.58 136.28 237.909C134.608 236.239 131.919 236.238 126.54 236.238H120.834C115.455 236.238 112.764 236.238 111.094 237.909ZM133.068 241.259C133.446 241.713 133.384 242.387 132.931 242.765L129.798 245.376C128.533 246.431 127.509 247.284 126.603 247.866C125.661 248.472 124.744 248.855 123.687 248.855C122.63 248.855 121.713 248.471 120.77 247.866C119.866 247.284 118.841 246.43 117.576 245.377L114.443 242.767C113.989 242.388 113.928 241.714 114.306 241.259C114.684 240.805 115.359 240.744 115.813 241.122L118.894 243.688C120.225 244.796 121.148 245.564 121.93 246.066C122.684 246.551 123.196 246.715 123.688 246.715C124.181 246.715 124.693 246.552 125.447 246.066C126.228 245.564 127.152 244.796 128.483 243.688L131.563 241.12C132.017 240.743 132.69 240.805 133.068 241.259Z" fill="white"/>
<g clip-path="url(#clip1_9_363)">
<path fill-rule="evenodd" clip-rule="evenodd" d="M103.526 169.014H143.848V209.336H103.526V169.014Z" fill="white"/>
</g>
<path fill-rule="evenodd" clip-rule="evenodd" d="M166.71 127.678C166.71 130.975 164.038 133.648 160.741 133.648C157.444 133.648 154.771 130.975 154.771 127.678C154.771 124.381 157.444 121.708 160.741 121.708C164.038 121.708 166.71 124.381 166.71 127.678Z" fill="white"/>
<path fill-rule="evenodd" clip-rule="evenodd" d="M170.975 143.029C170.975 146.326 166.393 148.999 160.741 148.999C155.088 148.999 150.507 146.326 150.507 143.029C150.507 139.732 155.088 137.059 160.741 137.059C166.393 137.059 170.975 139.732 170.975 143.029Z" fill="white"/>
<path fill-rule="evenodd" clip-rule="evenodd" d="M152.42 123.414C152.724 123.414 153.019 123.442 153.304 123.499C152.588 124.776 152.212 126.215 152.212 127.678C152.212 129.159 152.589 130.552 153.253 131.765C152.983 131.816 152.706 131.842 152.42 131.842C150.009 131.842 148.052 129.955 148.052 127.629C148.052 125.302 150.009 123.414 152.42 123.414Z" fill="white"/>
<path fill-rule="evenodd" clip-rule="evenodd" d="M149.563 147.269C148.596 146.111 147.948 144.69 147.948 143.029C147.948 141.419 148.557 140.034 149.477 138.896C146.226 139.149 143.684 140.926 143.684 143.079C143.684 145.253 146.272 147.044 149.563 147.269Z" fill="white"/>
<path fill-rule="evenodd" clip-rule="evenodd" d="M169.269 127.678C169.269 129.159 168.892 130.552 168.229 131.765C168.497 131.816 168.774 131.842 169.061 131.842C171.473 131.842 173.427 129.955 173.427 127.629C173.427 125.302 171.474 123.414 169.063 123.414C168.759 123.414 168.464 123.442 168.179 123.499C168.873 124.734 169.271 126.16 169.271 127.678" fill="white"/>
<path fill-rule="evenodd" clip-rule="evenodd" d="M171.918 147.269C175.21 147.044 177.797 145.253 177.797 143.079C177.797 140.924 175.254 139.149 172.005 138.896C172.926 140.034 173.533 141.419 173.533 143.029C173.533 144.69 172.885 146.111 171.918 147.269Z" fill="white"/>
<defs>
<clipPath id="clip0_9_363">
<rect width="33" height="32" fill="white" transform="translate(204.695 306.695)"/>
</clipPath>
<clipPath id="clip1_9_363">
<rect width="41" height="41" fill="white" transform="translate(103.526 169.014)"/>
</clipPath>
</defs>
</svg>
