<svg width="16" height="16" viewBox="0 0 16 16" fill="none" xmlns="http://www.w3.org/2000/svg">
<path fill-rule="evenodd" clip-rule="evenodd" d="M14.6666 1.33322C15.4292 2.09595 15.4292 3.33244 14.6666 4.09517L14.3147 4.44706C14.1868 4.41837 14.0605 4.38261 13.9366 4.33994C13.4106 4.15567 12.9333 3.85466 12.5403 3.45949C12.1452 3.06655 11.8442 2.5892 11.6599 2.06326C11.6175 1.93928 11.5819 1.81303 11.5535 1.68512L11.9047 1.33322C12.6674 0.570622 13.9039 0.570622 14.6666 1.33322Z" fill="#6B6B6B"/>
<path fill-rule="evenodd" clip-rule="evenodd" d="M9.97421 8.78757C9.68758 9.0742 9.54427 9.21751 9.38606 9.34096C9.19958 9.4863 8.99785 9.61096 8.78443 9.71272C8.60352 9.79856 8.41126 9.86241 8.02673 9.99083L5.99907 10.6669C5.80964 10.7304 5.60062 10.6812 5.45944 10.5398C5.31825 10.3985 5.26923 10.1894 5.33289 10L6.00901 7.97311C6.13671 7.58858 6.20056 7.39631 6.28712 7.2154C6.38975 7.00114 6.51367 6.8006 6.65888 6.61377C6.78232 6.45556 6.92564 6.31225 7.21226 6.02492L10.7 2.53789C10.9399 3.16671 11.3106 3.73741 11.7876 4.21223C12.2624 4.68921 12.8331 5.05993 13.4619 5.29984L9.97421 8.78757Z" fill="#6B6B6B"/>
<path fill-rule="evenodd" clip-rule="evenodd" d="M13.6907 13.6907C14.6667 12.7133 14.6667 11.1427 14.6667 8C14.6667 6.968 14.6667 6.10533 14.632 5.37733L10.3907 9.61867C10.1567 9.85333 9.9807 10.0293 9.7827 10.1833C9.55057 10.3652 9.29904 10.5208 9.0327 10.6473C8.80604 10.7553 8.57004 10.834 8.25537 10.9387L6.30071 11.59C5.7636 11.7691 5.17143 11.6293 4.77109 11.2289C4.37075 10.8286 4.23098 10.2364 4.41004 9.69933L5.06137 7.74467C5.16604 7.43 5.24471 7.194 5.35271 6.96733C5.48026 6.70067 5.63493 6.45067 5.81671 6.21733C5.97071 6.01933 6.14671 5.844 6.38137 5.60933L10.6227 1.368C9.8947 1.33334 9.03204 1.33334 8.00004 1.33334C4.85737 1.33334 3.28604 1.33334 2.30937 2.30934C1.33337 3.28667 1.33337 4.85733 1.33337 8C1.33337 11.1427 1.33337 12.714 2.30937 13.69C3.28671 14.6667 4.85737 14.6667 8.00004 14.6667C11.1427 14.6667 12.714 14.6667 13.69 13.69" fill="#6B6B6B"/>
</svg>
